<?xml version="1.0" encoding="utf-8"?>
<!-- Generator: Adobe Illustrator 22.0.0, SVG Export Plug-In . SVG Version: 6.00 Build 0)  -->
<svg version="1.1" id="图层_1" xmlns="http://www.w3.org/2000/svg" xmlns:xlink="http://www.w3.org/1999/xlink" x="0px" y="0px"
	 viewBox="0 0 80 80" style="enable-background:new 0 0 80 80;" xml:space="preserve">
<style type="text/css">
	.st0{fill:#2E7318;}
</style>
<g transform="translate(1592 3088)">
	<g transform="translate(11.56 57.194)">
		<path class="st0" d="M-1542.8-3084.1c0.3,0.3,0.6,0.5,0.7,0.9c0,0.1,0.1,0.2,0.2,0.2c0.2,0,0.2-0.1,0.3-0.2c0.1-0.1,0.1-0.3,0-0.3
			c-0.5-0.2-0.4-0.6-0.4-1c0-0.2-0.1-0.3-0.3-0.4c-0.2,0-0.1,0.3-0.3,0.3c-0.4-0.2,0-0.7-0.2-1c-0.4,0.1-0.5,0-0.6-0.4
			c0-0.1,0-0.3-0.1-0.4c-0.1-0.3-0.2-0.4-0.5-0.1c0-0.3,0.1-0.4,0.2-0.4c0.4,0,0.2,0.4,0.5,0.6c0.6-0.2,0.6-0.2,0.7,0.8
			c0.3,0.1,0.2-0.3,0.4-0.4c0.7-0.2,1,0,1.1,0.7c0.1,0.4,0.2,0.6,0.6,0.2c-0.3-0.9-1-1.7-1.8-2.2c0-0.2,0.2-0.4,0.5-0.4
			c0.3,0,0.4,0.2,0.5,0.4c0.2,0.7,0.5,1.4,1.1,1.9c0.3-0.3,0.6-0.5,0.9-0.8c0.2-0.1,0.3-0.2,0.5-0.1c0.2,0.2,0,0.3-0.1,0.5
			c-0.2,0.3-0.3,0.6-0.5,0.9c-0.2-0.2,0-0.4-0.1-0.6c-0.4,0.2-0.5,0.3-0.4,0.6c0.1,0.4-0.1,0.4-0.4,0.5c-0.6,0.2-0.8,0.6-0.4,1.1
			c0.1,0.1,0.1,0.3,0.2,0.4c0.4-0.6,0.4-1.3,1-1.6c0.7,0.4,0.3,1.1,0.5,1.7c0.3,0,0.5-0.1,0.7-0.4c0.2-0.2,0.3-0.4,0.5-0.6
			c0.2-0.2,0.4-0.2,0.7,0c-0.2,0.5-0.9,0.6-1,1.2c0.2,0.2,0.4,0.3,0.6,0.5c0.6,0.5,0.6,1,0,1.5c-0.3,0.3-0.7,0.5-1.1,0.6
			c0.3-0.7,1.3-1.3,0.1-2.2c-0.3,0.8-0.8,1.5-1.3,2.2c-0.2,0-0.2-0.2-0.2-0.5c0-0.1,0.1-0.3,0.2-0.4c0.7-0.7,0.3-1.5,0.3-2.3
			c0-0.1-0.1-0.2-0.2-0.3c-0.2,0.2-0.2,0.4-0.3,0.7c-0.1,0.2-0.1,0.3-0.2,0.5c-0.1,0.2-0.3,0.3-0.5,0.3c-0.2,0-0.3-0.2-0.3-0.4
			c0-0.2-0.1-0.4-0.1-0.6c-0.3,0.1-0.3,0.4-0.5,0.5c-1.1-0.5-2.1-1.2-2.9-2.1c0.3-0.2,0.7-0.1,0.9,0.2c0,0,0,0,0,0
			c0.2,0.2,0.3,0.4,0.5,0.7c0.1,0.2,0.3,0.4,0.5,0.3C-1542.5-3083.6-1542.8-3083.8-1542.8-3084.1z M-1541.5-3084.8
			c0.2-0.7,0-1-0.6-0.9C-1542-3085.3-1542.1-3084.9-1541.5-3084.8L-1541.5-3084.8z M-1541.4-3083.6c0.1-0.3,0.1-0.5,0.4-0.7
			c-0.2,0-0.5-0.4-0.7-0.1C-1541.9-3084.2-1541.7-3083.9-1541.4-3083.6L-1541.4-3083.6z"/>
		<path class="st0" d="M-1556.8-3073.7c0.3,0,0.5-0.2,0.9-0.2c-0.1,0.6-0.7,0.5-1,0.9c0.3,0.4,0.9,0.2,1.2,0.4
			c0,0.3-0.3,0.4-0.5,0.4c-0.4,0.1-0.4,0.3-0.3,0.7c0.1,0.3,0.1,0.7,0.2,1c0.1,0.3,0,0.6-0.4,0.6c-0.2-0.6-0.3-1.2-0.3-1.8
			c-0.2,0-0.5,0.1-0.6,0.2c-0.2,0.3-0.5,0.2-0.7-0.1c0.3-0.1,0.6-0.3,0.9-0.4c0.3,0,0.5-0.3,0.5-0.6c0-0.1-0.1-0.2-0.1-0.3
			c-0.5,0.1-1,0.6-1.6,0.3c1-0.4,1.7-1.4,1.8-2.5c-0.8,0.3-1.5,0.6-2.1,1.1c-0.4,0.4-0.9,0.6-1.3,1c-0.2,0.2-0.4,0-0.5-0.1
			c-0.1-0.2-0.3-0.4-0.5-0.3c0-0.2,0.1-0.2,0.2-0.2c0.9-0.2,1.8-0.5,2.6-1.1c0.2,0,0.2-0.2,0.2-0.4c0,0,0,0,0-0.1
			c-0.1-0.4-0.2-0.8-0.4-1.2c-0.2,0.2-0.4,0.4-0.5,0.7c-0.1,0.2-0.3,0.4-0.6,0.4c-0.3-0.1-0.5-0.3-0.5-0.6c0-0.3,0-0.6,0.1-0.9
			c0.1,0.1,0.2,0.2,0.3,0.4c0.4,0,0.7-0.2,0.9-0.5c0.2-0.3-0.1-0.7,0-1c0.3-0.1,0.6,0.1,0.7,0.4c0,0,0,0.1,0,0.1
			c0.1,0.8,0.3,1.5,0.6,2.2c0.3-0.3,0.5-0.7,0.4-1.1c0-0.8,0-1.7-0.1-2.5c0-0.2-0.1-0.4,0.2-0.5c0.3,0,0.3,0.2,0.3,0.4
			c0.3,0.9-0.1,1.7-0.1,2.6c0.2,0.1,0.2-0.1,0.4-0.1c0.2,0.3-0.4,0.5-0.2,0.9c0.5-0.1,1-0.3,1.5-0.4c0.1-0.1,0.3-0.1,0.4-0.1
			c0.1,0,0.3,0,0.3,0.2c0,0.1-0.1,0.2-0.2,0.2c0,0,0,0,0,0c-0.6,0-1,0.4-1.6,0.4c0.3,0.2,0.4,0.5,0.3,0.8c-0.1,0.3-0.4,0.4-0.6,0.7
			c0,0-0.1,0.1-0.1,0.1C-1556.9-3073.6-1556.8-3073.6-1556.8-3073.7z"/>
		<path class="st0" d="M-1588.1-3086.6c0.2,0.5,0.6,0.9,1.1,1.1c0.2,0.1,0.4,0.1,0.6-0.1c0.1-0.1,0.2-0.2,0.4-0.3
			c0.4-0.2,0.6-0.6,0.4-1c-0.1-0.2-0.1-0.4,0.1-0.6c0.2,0.3,0.4,0.5,0.6,0.8c0.7-0.2,1.2-0.7,1.5-1.3c0.3,0.2,0.4,0.6,0.1,0.9
			c-0.1,0.1-0.2,0.2-0.3,0.2c-0.2,0.1-0.4,0.2-0.6,0.4c-0.2,0.2-0.4,0.3-0.2,0.6c0.2,0.2,0,0.4-0.2,0.5c-0.1-0.1-0.2-0.1-0.3-0.2
			c-0.1-0.1-0.2-0.2-0.3-0.2c-0.3,0.2-0.6,0.4-0.9,0.7c0.3,0.2,0.7,0.4,1,0.6c0.4,0.2,0.3,0.5,0.2,0.8c-0.1,0.3-0.2,0.5-0.6,0.4
			c-0.4,0-0.8-0.1-1.2-0.2c0,0.1,0,0.2,0,0.3c-0.1,0.5-0.3,0.6-0.8,0.4c-0.2-0.1-0.4-0.2-0.6-0.4c-0.3-0.2-0.5-0.1-0.5,0.3
			c0,0.3,0.1,0.6,0.2,0.9c0.1,0.3,0.2,0.6,0.3,0.9c0,0.3,0.1,0.6-0.2,0.8c-0.3,0.1-0.5-0.2-0.7-0.4c0.5-0.7,0.2-1.4,0-2.2
			c-0.3,0.2-0.6,0.5-0.9,0.8c-0.3,0.2-0.5,0.5-0.9,0.1c-0.3-0.2-0.4-0.7-0.1-1c0,0,0-0.1,0.1-0.1c0,0.1,0.1,0.2,0.2,0.3
			c0.2,0.3,0.4,0.4,0.8,0.1c0.3-0.2,0.5-0.4,0.7-0.6c-0.9-0.3-2,0.1-2.8-0.7c0.3-0.2,0.6-0.3,0.9-0.4c0.1,0.2-0.2,0.2,0,0.4
			c0.6,0.3,1.3,0.4,1.9,0.2C-1589.6-3084.8-1589.1-3086-1588.1-3086.6z M-1588.2-3085.9c-0.4,0.4-0.8,0.9-0.9,1.5l0.4,0.2
			c-0.1,0.1-0.2,0.1-0.2,0.3c0.5,0.1,0.7-0.2,0.9-0.5c0-0.2-0.3-0.3-0.2-0.5c0.2,0,0.4,0,0.5,0c0.2,0.1,0.4,0.1,0.5-0.2
			C-1587.5-3085.2-1587.9-3085.5-1588.2-3085.9L-1588.2-3085.9z M-1588.2-3083.6c0.2,0.4,0.6,0.2,0.8,0.5c0.2-0.1,0.3-0.3,0.5-0.4
			c-0.1-0.1-0.3-0.2-0.3-0.3c-0.1-0.8-0.4-0.3-0.7-0.1C-1588-3083.9-1588.1-3083.8-1588.2-3083.6L-1588.2-3083.6z M-1587-3084.6
			c0.7,0.9,0.7,0.9,1.3,0.5C-1586.2-3084.8-1586.7-3084.9-1587-3084.6L-1587-3084.6z"/>
		<path class="st0" d="M-1578-3078c0.6,0.3,1.2,0.1,1.7,0.5c0.1,0.1,0.2,0.2,0.2,0.4c-0.1,0.2-0.2,0-0.3,0c-0.3-0.1-0.6-0.2-0.9-0.4
			c-1-0.4-1.2-0.3-1.9,0.6c0.1,0.2,0.4,0.2,0.6,0.3c0.2,0.1,0.4,0.3,0.7,0.4c0.2,0.2,0.5,0.4,0.3,0.7c-0.2,0.3-0.5,0-0.7-0.1
			c-0.4-0.4-0.8-0.7-1.3-1c-0.4-0.2-0.4-0.4-0.1-0.7c0.2-0.2,0.5-0.3,0.7-0.6c-0.7-0.1-1.5,0-2.2,0.1c-0.4,0-0.8,0-1.1,0
			c-0.2,0-0.4,0-0.4-0.3c0-0.2,0.2-0.4,0.4-0.4c0,0,0,0,0,0h0.1c0.8,0,0.8,0,1.4-0.7c-0.2-0.2-0.4-0.3-0.6-0.5
			c-0.2-0.2-0.3-0.5-0.1-0.7c0,0,0,0,0,0c0.2-0.2,0.4,0,0.6,0.2c0.6,0.4,1,0.4,1.2-0.4c0.3,0.1,0.5,0.4,0.5,0.8c0,0.1,0,0.1-0.1,0.1
			c-0.1,0.4-0.4,0.7-0.7,0.8c-0.2,0.1-0.4,0.3-0.5,0.5c0.9,0.4,2,0.2,2.6-0.5c0.1-0.1,0.2-0.3,0.1-0.5c-0.1-0.4,0.1-0.4,0.4-0.3
			c0.3,0.1,0.4,0.4,0.3,0.7c0,0.1,0,0.1-0.1,0.1C-1577.4-3078.5-1577.7-3078.2-1578-3078z"/>
		<path class="st0" d="M-1569.9-3075.5c0.3-0.3,0.5,0,0.8-0.1c0.1-0.1,0.2-0.3,0.2-0.4c-0.3-0.3-0.4,0.3-0.6,0.1
			c0-0.2-0.1-0.4-0.3-0.6c0.4,0,0.5-0.2,0.5-0.4c0-0.3-0.2-0.2-0.4-0.3c-0.1-0.1-0.2-0.1-0.3-0.2c0.2-0.3,0.7,0.3,0.9-0.2
			c0.1-0.3,0.2-0.7,0.2-1c0.4,0.2,0.5,0.5,0.3,1c-0.2,0.4-0.1,0.5,0.3,0.5c0.2,0,0.2-0.2,0.3-0.3c0.2-0.4,0.4-0.8,0.6-1.3
			c0.8,0.6,0.1,1.1-0.2,1.6c0.3,0.2,0.8,0.2,1,0.7c0.2,0.4,0.1,0.6-0.2,0.7c-0.4,0.2-0.8,0.2-1.1,0.4
			C-1568.7-3074.8-1569.2-3075.4-1569.9-3075.5z M-1568.1-3075.9c-0.6,0.1-0.6,0.1-0.7,0.4c0.4,0.2,1.2-0.3,1.5-1
			c-0.2-0.1-0.5-0.3-0.8-0.1C-1568.4-3076.4-1568.3-3076.2-1568.1-3075.9L-1568.1-3075.9z M-1568.5-3076.8c-0.5-0.2-0.6-0.2-0.7,0.4
			C-1568.8-3076.2-1568.6-3076.4-1568.5-3076.8L-1568.5-3076.8z"/>
		<path class="st0" d="M-1549-3078c-0.4,0.1-0.7,0.6-1.3,0.2c0.3-0.2,0.5-0.4,0.7-0.6c0.3-0.2,0.5-0.6,0.3-0.9
			c-0.1-0.4-0.2-0.7-0.3-1.1c0-0.2-0.1-0.5,0.2-0.6c0.3-0.1,0.4,0.2,0.5,0.4c0.1,0.3,0.2,0.7,0.2,1c0.4-0.1,0.4-0.5,0.7-0.7
			c0.2,0.1,0.4,0.2,0.2,0.4c-0.1,0.1-0.1,0.3-0.2,0.4c-0.7,0.4-0.7,1-0.4,1.7c0.2,0.8,0.3,1.6,0.1,2.5c-0.1,0.5-0.3,0.9-0.8,1.2
			C-1548.7-3075.3-1548.7-3076.7-1549-3078z"/>
		<path class="st0" d="M-1569.8-3073.8c-0.4,0-0.8,0.2-1.1,0.4c-0.8,0.4-1.4,1-2.2,1.5c-0.2,0.2-0.4,0.3-0.7,0.3
			c0-0.3,0.2-0.6,0.5-0.8c0.9-0.6,1.9-1.2,2.9-1.7c0.2-0.1,0.4-0.2,0.6-0.4c-0.2-0.1-0.4-0.2-0.6-0.1c-0.3,0-0.5,0.1-0.8,0.2
			c-0.8,0.2-0.9,0.2-1.6-0.4c0.2-0.1,0.4-0.1,0.7,0c0.9,0.2,1.8,0.2,2.7,0c0.2,0,0.4,0,0.5,0.1c0.1,0.1,0.2,0.2,0.2,0.3
			c0,0.2-0.1,0.2-0.3,0.2c-0.3,0.1-0.5,0.2-0.8,0.3C-1569.8-3073.9-1569.9-3073.9-1569.8-3073.8L-1569.8-3073.8z"/>
		<path class="st0" d="M-1547.2-3076.9c0.7-0.5,1.5-0.9,2.3-1.1c0.2,0,0.3,0,0.5,0c0.2,0.1,0.5,0.2,0.5,0.5c0,0.3-0.3,0.5-0.6,0.4
			c0,0,0,0-0.1,0c-0.7,0-1.5,0-2.2,0.2C-1546.9-3076.8-1547.1-3076.8-1547.2-3076.9z"/>
		<path class="st0" d="M-1568.3-3072.4c0.2,0.1,0.4,0.2,0.4,0.4c0,0.2-0.2,0.4-0.4,0.5c-0.4,0.1-0.8,0.2-1.2,0.2
			c0,0.4,0.3,0.8,0.6,1c0,0.2-0.1,0.4-0.2,0.6c-0.1,0.1-0.2,0.3-0.4,0.2c-0.2,0-0.2-0.2-0.2-0.4c0-0.3,0-0.5,0-0.8
			c0-0.4-0.2-0.7-0.5-1C-1569.5-3071.5-1568.7-3071.5-1568.3-3072.4z"/>
		<path class="st0" d="M-1572-3070.2c-0.3-0.2-0.4-0.7-0.2-1c0.3-0.6,0.7-1.2,1.2-1.7c0.3,0.8-0.6,1.1-0.8,1.8
			c0.3,0.2,0.6-0.1,0.9,0C-1571.2-3070.8-1571.6-3070.5-1572-3070.2z"/>
		<path class="st0" d="M-1569.8-3073.8c0.3,0,0.6,0,0.9-0.1c0.3-0.1,0.5,0,0.7,0.3c0.1,0.3-0.2,0.4-0.4,0.5
			c-0.2,0.1-0.5,0.2-0.3,0.6c-0.6,0-1.2-0.1-1.7-0.4c0.5-0.1,1.1,0,1.4-0.5C-1569.4-3073.7-1569.8-3073.5-1569.8-3073.8
			L-1569.8-3073.8z"/>
		<path class="st0" d="M-1542.9-3082.2c0.4,0,0.6,0.3,0.9,0.2c-0.2,0.6,0.2,1,0.3,1.5C-1542.5-3080.8-1542.6-3081.5-1542.9-3082.2z"
			/>
		<path class="st0" d="M-1555.5-3077.9c-0.2,0.5-0.5,0.9-1,1.1c0.2-0.3-0.5-0.7,0.1-1.1C-1556.2-3078-1555.8-3078-1555.5-3077.9z"/>
		<path class="st0" d="M-1570.6-3075.7c-0.1-0.6-0.2-1.2-0.2-1.9C-1570.2-3077.1-1570.1-3076.3-1570.6-3075.7
			C-1570.6-3075.7-1570.6-3075.7-1570.6-3075.7z"/>
		<path class="st0" d="M-1555.4-3070.8c0.2-0.3-0.1-0.4-0.1-0.6c0.2-0.2,0.4-0.3,0.7-0.1c0.2,0.1,0.4,0.3,0.3,0.5
			C-1554.7-3070.6-1555.1-3070.9-1555.4-3070.8z"/>
		<path class="st0" d="M-1558.2-3073.3c-0.4-0.7,0.3-0.6,0.5-0.9C-1557.6-3073.7-1557.8-3073.4-1558.2-3073.3z"/>
		<path class="st0" d="M-1543.7-3085.3c0.4,0.2,0.4,0.5,0.6,0.8c-0.3-0.1-0.4-0.4-0.8-0.3C-1543.9-3085-1543.8-3085.1-1543.7-3085.3
			z"/>
		<path class="st0" d="M-1557.5-3070.2c0,0.2-0.1,0.2-0.2,0.2c-0.2,0-0.2-0.1-0.2-0.2c0-0.2,0.1-0.3,0.3-0.3
			C-1557.5-3070.5-1557.5-3070.4-1557.5-3070.2z"/>
	</g>
	<g transform="translate(11.538 18.9)">
		<path class="st0" d="M-1578.1-3067.2l10.6-20.8h-1.9l-22.6,35.7h1.8l16.5-25.6l-13.5,25.6h5.8l22.4-35.7h-5.9L-1578.1-3067.2z"/>
		<path class="st0" d="M-1573.1-3064l-2.6,4.5h24.8l-0.5-0.9h-18.3l0.5-0.8l17.3,0l-0.6-1l-16,0.1l0.6-0.9l15.1,0l-0.5-0.9
			L-1573.1-3064z"/>
		<path class="st0" d="M-1560.5-3084.6l-2.1,3.4l17,28.8h8.8l-21.5-35.7l-1.4,2.3l16.1,26.5l-1.6,0L-1560.5-3084.6z"/>
	</g>
	<path class="st0" d="M-1552-3008c-22.1,0-40-17.9-40-40s17.9-40,40-40s40,17.9,40,40C-1512-3025.9-1529.9-3008-1552-3008z
		 M-1552-3086c-21,0-38,17-38,38s17,38,38,38s38-17,38-38C-1514-3069-1531-3086-1552-3086z"/>
	<g transform="translate(14.231 13.76)">
		<path class="st0" d="M-1591.9-3060.1c-0.1-0.7-0.1-1.5-0.1-2.2c0-14.2,11.5-25.8,25.8-25.8s25.8,11.5,25.8,25.8
			c0,0.7,0,1.4-0.1,2.2l-0.9-0.1c0.1-0.7,0.1-1.4,0.1-2.1c0-13.7-11.1-24.9-24.9-24.9c-13.7,0-24.9,11.1-24.9,24.9
			c0,0.7,0,1.4,0.1,2.1L-1591.9-3060.1z"/>
		<g transform="translate(6.42 42.2)">
			<path class="st0" d="M-1572.7-3078.7c-7.4,0-14.5-3.2-19.3-8.8l0.7-0.6c9.1,10.3,24.8,11.3,35.1,2.2c0.8-0.7,1.5-1.4,2.2-2.2
				l0.7,0.6C-1558.2-3081.9-1565.2-3078.7-1572.7-3078.7z"/>
		</g>
	</g>
	<g transform="translate(32.548 55.219)">
		<path class="st0" d="M-1589.9-3083.1h-0.9v-3.5c-0.3,0.3-0.7,0.6-1.2,0.7v-0.8c0.3-0.1,0.5-0.3,0.8-0.4c0.3-0.2,0.5-0.5,0.6-0.8
			h0.7L-1589.9-3083.1z"/>
		<path class="st0" d="M-1588-3084.3l0.9-0.1c0,0.1,0.1,0.3,0.2,0.4c0.1,0.1,0.2,0.1,0.4,0.1c0.2,0,0.4-0.1,0.5-0.3
			c0.2-0.3,0.3-0.7,0.2-1.1c-0.2,0.3-0.5,0.4-0.9,0.4c-0.4,0-0.7-0.2-1-0.4c-0.3-0.3-0.4-0.7-0.4-1.1c0-0.4,0.1-0.9,0.4-1.2
			c0.6-0.6,1.6-0.6,2.2,0c0,0,0.1,0.1,0.1,0.1c0.4,0.6,0.5,1.2,0.5,1.9c0.1,0.7-0.1,1.3-0.5,1.9c-0.3,0.4-0.8,0.6-1.3,0.6
			c-0.3,0-0.7-0.1-0.9-0.3C-1587.8-3083.6-1588-3083.9-1588-3084.3z M-1585.9-3086.3c0-0.2-0.1-0.5-0.2-0.7
			c-0.1-0.1-0.3-0.2-0.5-0.2c-0.2,0-0.3,0.1-0.4,0.2c-0.1,0.2-0.2,0.4-0.2,0.7c0,0.2,0,0.5,0.2,0.7c0.1,0.2,0.3,0.2,0.5,0.2
			c0.2,0,0.3-0.1,0.4-0.2C-1586-3085.8-1585.9-3086-1585.9-3086.3L-1585.9-3086.3z"/>
		<path class="st0" d="M-1582-3083.1v-1h-2v-0.8l2.1-3.1h0.8v3.1h0.6v0.8h-0.6v1H-1582z M-1582-3084.9v-1.6l-1.1,1.6H-1582z"/>
		<path class="st0" d="M-1578.8-3085.7c-0.2-0.1-0.4-0.2-0.5-0.4c-0.1-0.2-0.2-0.4-0.2-0.6c0-0.3,0.1-0.7,0.4-0.9
			c0.3-0.3,0.7-0.4,1.1-0.4c0.4,0,0.8,0.1,1.1,0.4c0.3,0.2,0.4,0.6,0.4,0.9c0,0.2-0.1,0.4-0.2,0.6c-0.1,0.2-0.3,0.3-0.5,0.4
			c0.2,0.1,0.5,0.3,0.6,0.5c0.1,0.2,0.2,0.5,0.2,0.7c0,0.4-0.1,0.8-0.4,1.1c-0.3,0.3-0.7,0.4-1.1,0.4c-0.4,0-0.8-0.1-1.1-0.3
			c-0.3-0.3-0.5-0.7-0.5-1.1c0-0.3,0.1-0.5,0.2-0.7C-1579.3-3085.5-1579.1-3085.6-1578.8-3085.7z M-1578.7-3084.6
			c0,0.2,0.1,0.4,0.2,0.6c0.2,0.3,0.6,0.3,0.9,0.1c0,0,0,0,0,0c0.1-0.2,0.2-0.4,0.2-0.6c0-0.2-0.1-0.4-0.2-0.5
			c-0.1-0.1-0.3-0.2-0.5-0.2c-0.2,0-0.4,0.1-0.5,0.2C-1578.6-3085-1578.7-3084.8-1578.7-3084.6L-1578.7-3084.6z M-1578.6-3086.7
			c0,0.2,0,0.3,0.2,0.4c0.1,0.1,0.3,0.2,0.4,0.2c0.3,0,0.6-0.3,0.6-0.6c0-0.1-0.1-0.3-0.2-0.4c-0.1-0.1-0.3-0.2-0.4-0.2
			c-0.2,0-0.3,0-0.4,0.2C-1578.6-3087-1578.6-3086.8-1578.6-3086.7L-1578.6-3086.7z"/>
	</g>
	<g transform="translate(4.377 4.534)">
		<path class="st0" d="M-1585.5-3050.5l-6.4,0.2l0-0.5l5-2.3l-5.1,0.2l0-0.5l6.4-0.2l0,0.5l-5,2.3l5.1-0.2L-1585.5-3050.5z"/>
		<path class="st0" d="M-1588.7-3054.1c-0.9,0-1.7-0.3-2.5-0.8c-0.5-0.3-0.8-0.9-0.7-1.4c0-0.4,0.2-0.7,0.5-0.9
			c0.4-0.3,0.8-0.5,1.2-0.6c0.6-0.1,1.2-0.2,1.8-0.1c0.8,0,1.6,0.3,2.3,0.7c0.5,0.3,0.9,0.9,0.9,1.5c-0.1,0.6-0.5,1.2-1.1,1.3
			C-1587.1-3054.1-1587.9-3054-1588.7-3054.1z M-1588.6-3054.6c0.6,0.1,1.3,0,1.9-0.2c0.6-0.2,0.9-0.7,0.7-1.3
			c-0.1-0.3-0.3-0.5-0.5-0.6c-0.6-0.3-1.2-0.6-1.9-0.6c-0.5,0-1,0-1.5,0.1c-0.3,0-0.6,0.2-0.8,0.4c-0.2,0.2-0.3,0.4-0.4,0.7
			c0,0.4,0.2,0.8,0.6,1C-1590-3054.9-1589.3-3054.7-1588.6-3054.6z"/>
		<path class="st0" d="M-1585.2-3057.7l-6.3-1.4l0.4-1.7c0-0.3,0.2-0.5,0.4-0.8c0.2-0.2,0.4-0.3,0.7-0.3c0.3,0,0.7,0,1,0
			c0.4,0.1,0.8,0.3,1.1,0.5c0.3,0.2,0.4,0.6,0.4,0.9c0.1-0.1,0.3-0.2,0.4-0.2c0.3-0.1,0.6-0.2,0.9-0.2l1.9-0.3l-0.1,0.7l-1.4,0.2
			c-0.4,0-0.8,0.1-1.1,0.2c-0.2,0-0.3,0.1-0.4,0.2c-0.1,0.1-0.2,0.2-0.2,0.4l-0.1,0.6l2.8,0.6L-1585.2-3057.7z M-1588.6-3059
			l0.2-1.1c0.1-0.2,0.1-0.4,0-0.6c-0.1-0.2-0.2-0.3-0.3-0.4c-0.2-0.1-0.4-0.2-0.6-0.2c-0.3-0.1-0.5-0.1-0.8,0
			c-0.2,0.1-0.4,0.3-0.4,0.6l-0.3,1.2L-1588.6-3059z"/>
		<path class="st0" d="M-1584.1-3062l-5.4-1.8l-0.4,1.2l-0.7-0.2l1-3l0.7,0.2l-0.4,1.3l5.4,1.8L-1584.1-3062z"/>
		<path class="st0" d="M-1583.5-3063.7l-5.8-2.7l0.2-0.5l2.4,1.1l0.9-1.9l-2.4-1.1l0.2-0.5l5.8,2.7l-0.2,0.5l-2.7-1.3l-0.9,1.9
			l2.7,1.3L-1583.5-3063.7z"/>
		<path class="st0" d="M-1582-3066.8l-5.4-3.4l1.5-2.4l0.7,0.4l-1.3,2l1.7,1l1.2-1.9l0.7,0.4l-1.2,1.9l1.9,1.2l1.3-2.1l0.7,0.4
			L-1582-3066.8z"/>
		<path class="st0" d="M-1580.6-3069.1l-4.1-5.2l0.4-0.4l6.1,2.7l-0.4,0.5l-1.8-0.8l-1,1.3l1.3,1.5L-1580.6-3069.1z M-1581.9-3071.7
			l0.9-1.1l-1.7-0.8c-0.5-0.2-0.9-0.4-1.2-0.6c0.3,0.3,0.6,0.6,0.8,0.9L-1581.9-3071.7z"/>
		<path class="st0" d="M-1579.9-3073.3l0.3-0.4c0.2,0.2,0.5,0.3,0.7,0.4c0.2,0.1,0.4,0.1,0.6,0c0.2,0,0.4-0.1,0.5-0.3
			c0.2-0.2,0.3-0.5,0.3-0.7c0-0.3-0.2-0.5-0.4-0.7c-0.1-0.1-0.3-0.2-0.4-0.3c-0.1,0-0.3-0.1-0.4,0c-0.3,0.1-0.6,0.2-0.9,0.3
			c-0.3,0.1-0.6,0.2-0.9,0.3c-0.2,0-0.5,0-0.7-0.1c-0.7-0.3-1.1-0.9-1.3-1.6c-0.1-0.4,0.1-0.8,0.4-1.1c0.2-0.2,0.4-0.3,0.7-0.4
			c0.3,0,0.6,0,0.8,0.1c0.3,0.1,0.6,0.3,0.9,0.6l-0.3,0.4c-0.2-0.2-0.5-0.4-0.9-0.4c-0.3,0-0.5,0.1-0.7,0.3
			c-0.2,0.2-0.3,0.4-0.3,0.7c0,0.2,0.1,0.5,0.3,0.7c0.1,0.2,0.3,0.3,0.6,0.3c0.3,0,0.6-0.1,0.9-0.2c0.3-0.1,0.6-0.2,0.9-0.3
			c0.3-0.1,0.6,0,0.9,0.1c0.3,0.1,0.6,0.3,0.8,0.5c0.2,0.2,0.4,0.5,0.6,0.9c0.1,0.3,0.2,0.6,0.1,0.9c-0.1,0.3-0.2,0.5-0.4,0.7
			c-0.3,0.3-0.8,0.5-1.3,0.4C-1579-3072.6-1579.5-3072.9-1579.9-3073.3z"/>
		<path class="st0" d="M-1575.3-3074.8l-3.6-4.4l-1,0.8l-0.5-0.6l2.4-2l0.5,0.6l-1,0.8l3.6,4.4L-1575.3-3074.8z"/>
		<path class="st0" d="M-1573.6-3076.2l-2.1-6.3l0.5-0.3l4.8,4.6l-0.5,0.3l-1.4-1.4l-1.4,0.9l0.7,1.9L-1573.6-3076.2z M-1574.1-3079
			l1.1-0.7l-1.3-1.3c-0.4-0.4-0.7-0.7-0.9-1c0.2,0.4,0.3,0.8,0.5,1.2L-1574.1-3079z"/>
		<path class="st0" d="M-1570-3081.2l-0.3-0.7l1.5-0.7l1,2.2c-0.1,0.4-0.2,0.7-0.4,1c-0.2,0.3-0.4,0.5-0.7,0.6
			c-0.3,0.2-0.7,0.2-1.1,0.1c-0.4-0.1-0.8-0.4-1.1-0.7c-0.4-0.4-0.7-0.9-1-1.5c-0.3-0.6-0.5-1.2-0.5-1.8c-0.1-0.5,0-0.9,0.2-1.3
			c0.2-0.3,0.4-0.6,0.8-0.8c0.2-0.1,0.5-0.2,0.8-0.1c0.3,0,0.5,0.1,0.7,0.3c0.3,0.2,0.6,0.5,0.7,0.9l-0.3,0.4
			c-0.2-0.2-0.3-0.4-0.6-0.6c-0.2-0.1-0.3-0.2-0.5-0.2c-0.2,0-0.4,0-0.6,0.1c-0.3,0.1-0.5,0.3-0.6,0.6c-0.1,0.3-0.1,0.7-0.1,1
			c0.1,0.5,0.2,0.9,0.4,1.4c0.2,0.6,0.7,1.2,1.2,1.6c0.4,0.3,0.8,0.3,1.2,0.1c0.2-0.1,0.4-0.3,0.5-0.4c0.1-0.2,0.2-0.4,0.3-0.7
			l-0.5-1.1L-1570-3081.2z"/>
		<path class="st0" d="M-1567.2-3079.6l-2-6.1l1.7-0.5c0.3-0.1,0.6-0.1,0.8-0.1c0.2,0.1,0.4,0.2,0.6,0.4c0.2,0.3,0.4,0.6,0.5,0.9
			c0.1,0.4,0.2,0.8,0.1,1.2c-0.1,0.3-0.3,0.6-0.6,0.8c0.2,0.1,0.3,0.1,0.4,0.2c0.2,0.2,0.5,0.4,0.7,0.7l1.2,1.4l-0.6,0.2l-0.9-1.1
			c-0.2-0.3-0.5-0.6-0.8-0.9c-0.1-0.1-0.2-0.2-0.4-0.2c-0.1,0-0.3,0-0.4,0l-0.6,0.2l0.9,2.7L-1567.2-3079.6z M-1567.8-3083.2
			l1.1-0.4c0.2,0,0.4-0.1,0.5-0.3c0.1-0.1,0.2-0.3,0.2-0.4c0-0.2,0-0.4-0.1-0.6c-0.1-0.3-0.2-0.5-0.4-0.7c-0.2-0.1-0.5-0.2-0.7-0.1
			l-1.2,0.4L-1567.8-3083.2z"/>
		<path class="st0" d="M-1563.7-3080.7l-1.5-6.2l0.5-0.1l1.5,6.2L-1563.7-3080.7z"/>
		<path class="st0" d="M-1560.4-3083.6l0.6,0.1c0,0.6-0.1,1.2-0.4,1.7c-0.2,0.4-0.6,0.6-1,0.7c-0.3,0.1-0.7,0-1-0.2
			c-0.4-0.3-0.6-0.6-0.8-1c-0.3-0.6-0.5-1.2-0.5-1.8c-0.1-0.6-0.1-1.2,0-1.8c0.1-0.4,0.2-0.9,0.5-1.2c0.2-0.3,0.5-0.5,0.9-0.5
			c0.4-0.1,0.8,0.1,1.1,0.3c0.4,0.4,0.6,0.8,0.8,1.3l-0.5,0.3c-0.3-0.9-0.7-1.2-1.3-1.1c-0.3,0-0.5,0.2-0.7,0.4
			c-0.2,0.3-0.3,0.6-0.3,0.9c-0.1,0.5,0,1,0,1.5c0.1,0.7,0.3,1.3,0.7,1.9c0.2,0.4,0.6,0.6,1,0.5c0.3-0.1,0.5-0.2,0.7-0.5
			C-1560.4-3082.7-1560.3-3083.2-1560.4-3083.6z"/>
		<path class="st0" d="M-1557-3088l0.5,0l0.1,3.7c0,0.5,0,1-0.1,1.5c0,0.4-0.2,0.7-0.5,1c-0.2,0.2-0.6,0.4-0.9,0.4
			c-0.5,0-0.9-0.2-1.2-0.6c-0.3-0.7-0.5-1.4-0.5-2.2l-0.1-3.7l0.5,0l0.1,3.7c0,0.4,0,0.8,0.2,1.3c0.1,0.2,0.2,0.4,0.4,0.6
			c0.2,0.1,0.4,0.2,0.6,0.2c0.3,0,0.6-0.2,0.8-0.4c0.2-0.5,0.3-1.1,0.2-1.6L-1557-3088z"/>
		<path class="st0" d="M-1556-3081.6l0.4-6.4l0.5,0l-0.4,5.7l2,0.1l0,0.8L-1556-3081.6z"/>
		<path class="st0" d="M-1552.7-3081.3l0.8-5.6l-1.3-0.2l0.1-0.7l3.1,0.4l-0.1,0.7l-1.3-0.2l-0.8,5.6L-1552.7-3081.3z"/>
		<path class="st0" d="M-1546.8-3086.6l0.5,0.1l-0.9,3.6c-0.1,0.5-0.3,1-0.5,1.4c-0.2,0.3-0.4,0.6-0.7,0.8c-0.3,0.2-0.7,0.2-1,0.1
			c-0.5-0.1-0.8-0.4-1-0.9c-0.1-0.7-0.1-1.5,0.2-2.2l0.9-3.6l0.5,0.1l-0.9,3.6c-0.1,0.4-0.2,0.8-0.2,1.3c0,0.2,0.1,0.5,0.2,0.7
			c0.1,0.2,0.3,0.3,0.5,0.3c0.3,0.1,0.7,0,0.9-0.2c0.3-0.5,0.6-1,0.7-1.5L-1546.8-3086.6z"/>
		<path class="st0" d="M-1547.6-3080.1l2.3-6l1.7,0.7c0.3,0.1,0.5,0.2,0.7,0.5c0.1,0.2,0.2,0.5,0.2,0.7c0,0.3-0.1,0.7-0.2,1
			c-0.1,0.4-0.4,0.7-0.7,1c-0.3,0.2-0.6,0.3-1,0.2c0.1,0.1,0.1,0.3,0.2,0.4c0.1,0.3,0.1,0.6,0.1,0.9l0,1.9l-0.6-0.2v-1.4
			c0-0.4,0-0.8-0.1-1.1c0-0.2-0.1-0.3-0.2-0.4c-0.1-0.1-0.2-0.2-0.4-0.2l-0.6-0.2l-1,2.6L-1547.6-3080.1z M-1545.8-3083.3l1.1,0.4
			c0.2,0.1,0.4,0.1,0.6,0.1c0.2,0,0.3-0.1,0.4-0.2c0.2-0.1,0.3-0.3,0.3-0.5c0.1-0.2,0.1-0.5,0.1-0.8c-0.1-0.2-0.3-0.4-0.5-0.5
			l-1.2-0.5L-1545.8-3083.3z"/>
		<path class="st0" d="M-1544.8-3079l4.4-4.9l0.5,0.3l-1.6,6.4l-0.5-0.3l0.5-1.9l-1.5-0.8l-1.3,1.5L-1544.8-3079z M-1542.5-3080.8
			l1.2,0.6l0.5-1.8c0.1-0.5,0.3-1,0.4-1.3c-0.2,0.3-0.5,0.7-0.8,1L-1542.5-3080.8z"/>
		<path class="st0" d="M-1541.6-3077.4l3.6-5.3l0.4,0.3l-3.1,4.7l1.6,1.1l-0.4,0.6L-1541.6-3077.4z"/>
		<path class="st0" d="M-1532.5-3078.5l0.4,0.4l-2.4,2.8c-0.3,0.4-0.7,0.7-1.1,1.1c-0.3,0.2-0.6,0.4-1,0.4c-0.3,0-0.7-0.1-0.9-0.4
			c-0.4-0.3-0.6-0.8-0.5-1.3c0.2-0.7,0.6-1.4,1.2-1.9l2.5-2.8l0.4,0.4l-2.4,2.8c-0.3,0.3-0.5,0.6-0.8,1c-0.1,0.2-0.2,0.4-0.1,0.7
			c0.1,0.5,0.6,0.9,1.1,0.8c0,0,0.1,0,0.1,0c0.5-0.2,0.9-0.6,1.3-1.1L-1532.5-3078.5z"/>
		<path class="st0" d="M-1536.2-3073.1l4.8-4.3l0.4,0.4l-2.4,4.9l3.8-3.4l0.3,0.4l-4.8,4.3l-0.4-0.4l2.4-4.9l-3.8,3.4
			L-1536.2-3073.1z"/>
		<path class="st0" d="M-1533.8-3070.3l5.1-3.9l0.3,0.4l-5.1,3.9L-1533.8-3070.3z"/>
		<path class="st0" d="M-1532.6-3068.6l4.6-4.8l0.3,0.5l-3.4,3.4c-0.3,0.3-0.5,0.5-0.8,0.7c0.3-0.1,0.7-0.3,1-0.4l4.5-1.6l0.3,0.4
			l-6.2,2.2L-1532.6-3068.6z"/>
		<path class="st0" d="M-1531.5-3066.9l5.7-2.9l1.3,2.6l-0.7,0.3l-1.1-2.1l-1.8,0.9l1,2l-0.7,0.3l-1-2l-2,1l1.1,2.2l-0.7,0.3
			L-1531.5-3066.9z"/>
		<path class="st0" d="M-1530.1-3064.1l6-2.2l0.6,1.7c0.1,0.3,0.2,0.5,0.1,0.8c-0.1,0.2-0.2,0.4-0.4,0.6c-0.3,0.2-0.5,0.4-0.9,0.5
			c-0.4,0.2-0.8,0.2-1.2,0.1c-0.3-0.1-0.6-0.3-0.8-0.6c-0.1,0.2-0.1,0.3-0.2,0.4c-0.2,0.2-0.4,0.5-0.6,0.7l-1.4,1.3l-0.2-0.6l1.1-1
			c0.3-0.2,0.6-0.5,0.8-0.8c0.2-0.2,0.3-0.5,0.2-0.8l-0.2-0.6l-2.7,1L-1530.1-3064.1z M-1526.5-3064.8l0.4,1.1
			c0.1,0.2,0.2,0.4,0.3,0.5c0.1,0.1,0.3,0.2,0.4,0.2c0.2,0,0.4,0,0.6-0.1c0.3-0.1,0.5-0.2,0.7-0.5c0.1-0.2,0.1-0.5,0-0.7l-0.4-1.2
			L-1526.5-3064.8z"/>
		<path class="st0" d="M-1527-3061.5l0.2,0.5c-0.3,0.1-0.5,0.2-0.8,0.4c-0.2,0.1-0.3,0.3-0.4,0.5c-0.1,0.2-0.1,0.4,0,0.6
			c0,0.3,0.2,0.5,0.5,0.7c0.3,0.1,0.6,0.2,0.8,0.1c0.2,0,0.3-0.1,0.5-0.2c0.1-0.1,0.2-0.2,0.3-0.4c0.1-0.3,0.2-0.6,0.2-0.9
			c0-0.3,0.1-0.6,0.2-0.9c0.1-0.2,0.3-0.4,0.5-0.5c0.2-0.1,0.5-0.3,0.7-0.3c0.4-0.1,0.9-0.1,1.3,0.1c0.4,0.2,0.6,0.5,0.7,0.9
			c0.1,0.3,0,0.5,0,0.8c-0.1,0.3-0.3,0.5-0.5,0.7c-0.3,0.2-0.6,0.3-0.9,0.4l-0.2-0.5c0.3-0.1,0.6-0.2,0.8-0.5
			c0.2-0.2,0.2-0.5,0.1-0.7c0-0.3-0.2-0.5-0.4-0.6c-0.2-0.1-0.5-0.1-0.7-0.1c-0.2,0-0.4,0.1-0.5,0.3c-0.2,0.3-0.2,0.6-0.2,0.9
			c0,0.3-0.1,0.6-0.2,0.9c-0.1,0.3-0.3,0.5-0.5,0.7c-0.3,0.2-0.6,0.3-0.9,0.4c-0.3,0.1-0.7,0.1-1,0c-0.3-0.1-0.6-0.2-0.8-0.4
			c-0.2-0.2-0.4-0.5-0.4-0.7c-0.1-0.5,0-0.9,0.3-1.3C-1528-3061.1-1527.5-3061.4-1527-3061.5z"/>
		<path class="st0" d="M-1528.3-3057.6l6.4-1l0.1,0.5l-6.4,1L-1528.3-3057.6z"/>
		<path class="st0" d="M-1528-3055.6l5.6-0.5l-0.1-1.3l0.8-0.1l0.3,3.2l-0.8,0.1l-0.1-1.3l-5.6,0.5L-1528-3055.6z"/>
		<path class="st0" d="M-1527.9-3052.7l2.7,0.1l3.7-1.5l0,0.7l-2,0.7c-0.4,0.2-0.7,0.3-1.1,0.4c0.3,0.1,0.7,0.3,1.1,0.5l1.9,0.8
			l0,0.6l-3.7-1.7l-2.7-0.1L-1527.9-3052.7z"/>
	</g>
</g>
</svg>
